<svg xmlns="http://www.w3.org/2000/svg" width="62.896" height="34.953" viewBox="0 0 62.896 34.953"><path d="M61.932 11.502a17.438 17.438 0 00-3.613-6.31 13.675 13.675 0 00-6.333-3.964A29.307 29.307 0 0043.2 0H24.278l-8.412 12.183L7.695.001h-7.7l12.045 17.52L-.005 34.954h7.7l8.171-12.092 8.408 12.092h7.463L19.65 17.52l7.92-11.478h15.631q6.855 0 10.155 3.59a11.592 11.592 0 012.295 3.708 11.935 11.935 0 01.779 4.231 12.947 12.947 0 01-.708 4.105 10.087 10.087 0 01-2.271 3.779q-3.212 3.448-10.057 3.448h-2.082V13.871h-6.471v21.082h8.412a26.663 26.663 0 009.022-1.279 15.427 15.427 0 006.089-4.058 16.922 16.922 0 003.334-5.459 19.436 19.436 0 001.2-7.01 20.163 20.163 0 00-.966-5.645z" fill="#ffffff"/></svg>